<mxfile host="app.diagrams.net" modified="2023-02-05T20:57:28.003Z" agent="5.0 (Windows)" etag="AEfWFRuHegj0U_bl42mF" version="20.8.16" type="github">
  <diagram name="Page-1" id="vrL-Q4uoPe3vln_r7sc9">
    <mxGraphModel dx="1039" dy="525" grid="1" gridSize="10" guides="1" tooltips="1" connect="1" arrows="1" fold="1" page="1" pageScale="1" pageWidth="850" pageHeight="1100" math="0" shadow="0">
      <root>
        <mxCell id="0" />
        <mxCell id="1" parent="0" />
        <mxCell id="q9GNoSg0wLSgqSHfIklW-3" value="" style="edgeStyle=orthogonalEdgeStyle;rounded=0;orthogonalLoop=1;jettySize=auto;html=1;fontSize=25;" edge="1" parent="1" source="q9GNoSg0wLSgqSHfIklW-1" target="q9GNoSg0wLSgqSHfIklW-2">
          <mxGeometry relative="1" as="geometry" />
        </mxCell>
        <mxCell id="q9GNoSg0wLSgqSHfIklW-1" value="&lt;font style=&quot;font-size: 25px;&quot;&gt;start&lt;/font&gt;" style="ellipse;whiteSpace=wrap;html=1;" vertex="1" parent="1">
          <mxGeometry x="340" y="40" width="120" height="80" as="geometry" />
        </mxCell>
        <mxCell id="q9GNoSg0wLSgqSHfIklW-5" value="" style="edgeStyle=orthogonalEdgeStyle;rounded=0;orthogonalLoop=1;jettySize=auto;html=1;fontSize=25;" edge="1" parent="1" source="q9GNoSg0wLSgqSHfIklW-2" target="q9GNoSg0wLSgqSHfIklW-4">
          <mxGeometry relative="1" as="geometry" />
        </mxCell>
        <mxCell id="q9GNoSg0wLSgqSHfIklW-2" value="base , height" style="shape=parallelogram;perimeter=parallelogramPerimeter;whiteSpace=wrap;html=1;fixedSize=1;fontSize=25;" vertex="1" parent="1">
          <mxGeometry x="340" y="160" width="120" height="60" as="geometry" />
        </mxCell>
        <mxCell id="q9GNoSg0wLSgqSHfIklW-7" value="" style="edgeStyle=orthogonalEdgeStyle;rounded=0;orthogonalLoop=1;jettySize=auto;html=1;fontSize=25;" edge="1" parent="1" source="q9GNoSg0wLSgqSHfIklW-4" target="q9GNoSg0wLSgqSHfIklW-6">
          <mxGeometry relative="1" as="geometry" />
        </mxCell>
        <mxCell id="q9GNoSg0wLSgqSHfIklW-4" value="area= base*height" style="whiteSpace=wrap;html=1;fontSize=25;" vertex="1" parent="1">
          <mxGeometry x="315" y="300" width="170" height="60" as="geometry" />
        </mxCell>
        <mxCell id="q9GNoSg0wLSgqSHfIklW-9" value="" style="edgeStyle=orthogonalEdgeStyle;rounded=0;orthogonalLoop=1;jettySize=auto;html=1;fontSize=25;" edge="1" parent="1" source="q9GNoSg0wLSgqSHfIklW-6" target="q9GNoSg0wLSgqSHfIklW-8">
          <mxGeometry relative="1" as="geometry" />
        </mxCell>
        <mxCell id="q9GNoSg0wLSgqSHfIklW-6" value="area" style="shape=parallelogram;perimeter=parallelogramPerimeter;whiteSpace=wrap;html=1;fixedSize=1;fontSize=25;" vertex="1" parent="1">
          <mxGeometry x="340" y="440" width="120" height="60" as="geometry" />
        </mxCell>
        <mxCell id="q9GNoSg0wLSgqSHfIklW-8" value="END" style="ellipse;whiteSpace=wrap;html=1;fontSize=25;" vertex="1" parent="1">
          <mxGeometry x="325" y="570" width="150" height="70" as="geometry" />
        </mxCell>
      </root>
    </mxGraphModel>
  </diagram>
</mxfile>
